<svg xmlns="http://www.w3.org/2000/svg" fill="none" viewBox="0 0 89 15">
  <path fill="currentColor" fill-rule="evenodd" d="M21.724.625h-1.341c-.741 0-1.342.58-1.342 1.294V13.13c0 .715.6 1.294 1.342 1.294h1.341c.741 0 1.342-.58 1.342-1.294V1.92c0-.715-.6-1.294-1.342-1.294ZM14.07 3.644h1.341c.741 0 1.342.579 1.342 1.293v8.194c0 .715-.6 1.294-1.341 1.294H14.07c-.741 0-1.342-.58-1.342-1.294V4.937c0-.714.6-1.293 1.342-1.293ZM9.097 6.662H7.755c-.74 0-1.342.58-1.342 1.294v5.175c0 .714.601 1.294 1.342 1.294h1.342c.74 0 1.341-.58 1.341-1.294V7.956c0-.715-.6-1.294-1.341-1.294ZM2.783 9.25H1.441C.701 9.25.1 9.829.1 10.543v2.588c0 .714.6 1.294 1.341 1.294h1.342c.741 0 1.342-.58 1.342-1.294v-2.588c0-.714-.601-1.293-1.342-1.293Zm37.058-5.927c2.837 0 5.565 1.116 7.62 3.118a.388.388 0 0 0 .556-.005l1.48-1.53a.427.427 0 0 0-.004-.597 13.714 13.714 0 0 0-19.304 0 .427.427 0 0 0-.004.598l1.48 1.53a.39.39 0 0 0 .555.004 10.923 10.923 0 0 1 7.621-3.118Zm0 4.975c1.559 0 3.062.594 4.217 1.665a.39.39 0 0 0 .555-.008l1.478-1.529a.428.428 0 0 0-.006-.602 9.007 9.007 0 0 0-12.484 0 .427.427 0 0 0-.005.602l1.477 1.53a.39.39 0 0 0 .555.007 6.2 6.2 0 0 1 4.213-1.665Zm2.961 3.348a.417.417 0 0 1-.12.303l-2.557 2.642a.395.395 0 0 1-.567 0L37 11.95a.417.417 0 0 1 .012-.6 4.302 4.302 0 0 1 5.657 0c.082.077.13.184.132.297Z" clip-rule="evenodd"/>
  <rect width="27.6" height="13.8" x="57.191" y=".625" stroke="currentColor" stroke-width="1.15" opacity=".4" rx="4.025"/>
  <path fill="currentColor" d="M86.516 5.225v4.6a2.495 2.495 0 0 0 0-4.6Z" opacity=".5"/>
  <rect width="19.55" height="10.35" x="58.916" y="2.35" fill="currentColor" rx="2.3"/>
</svg>
