<svg xmlns="http://www.w3.org/2000/svg" fill="none" viewBox="0 0 440 902">
  <rect width="419" height="887" x="10.5" y="7.5" stroke="#000" stroke-width="15" rx="67.5"/>
  <rect width="427" height="895" x="6.5" y="3.5" stroke="#F0E1CB" stroke-width="7" rx="71.5"/>
  <rect width="432" height="900" x="4" y="1" stroke="#6C4A4A" stroke-opacity=".57" stroke-width="2" rx="74"/>
  <rect width="421" height="889" x="9.5" y="6.5" stroke="#6C4A4A" stroke-opacity=".46" rx="68.5"/>
  <rect width="421" height="889" x="9.5" y="6.5" stroke="#6C4A4A" stroke-opacity=".46" rx="68.5"/>
  <path fill="#6C4A4A" fill-opacity=".46" d="M338 0h6v7h-6z"/>
  <path fill="url(#a)" d="M437 291h3v107h-3z"/>
  <path fill="url(#b)" d="M0 334h3v64H0z"/>
  <path fill="url(#c)" d="M0 246h3v64H0z"/>
  <path fill="url(#d)" d="M0 170h3v43H0z"/>
  <path fill="#6C4A4A" fill-opacity=".46" d="M3 96h7v6H3zm0 704h7v6H3zm100 95h6v7h-6zM430 96h7v6h-7zm0 704h7v6h-7z"/>
  <rect width="126" height="37" x="157" y="28" fill="#000" rx="18.5"/>
  <circle cx="265" cy="46" r="12" fill="#050505"/>
  <circle cx="265" cy="46" r="5" fill="#13131F"/>
  <ellipse cx="263.133" cy="44.902" fill="#1D1D2B" rx="1.364" ry="2.146" transform="rotate(24.572 263.133 44.902)"/>
  <ellipse cx="267.654" cy="45.395" fill="#1D1D2B" rx=".894" ry="1.111" transform="rotate(-21.822 267.654 45.395)"/>
  <defs>
    <linearGradient id="a" x1="438.5" x2="438.5" y1="291" y2="398" gradientUnits="userSpaceOnUse">
      <stop stop-color="#F0E1CB"/>
      <stop offset="1" stop-color="#D2AF96"/>
    </linearGradient>
    <linearGradient id="b" x1="1.5" x2="1.5" y1="334" y2="398" gradientUnits="userSpaceOnUse">
      <stop stop-color="#F0E1CB"/>
      <stop offset="1" stop-color="#D2AF96"/>
    </linearGradient>
    <linearGradient id="c" x1="1.5" x2="1.5" y1="246" y2="310" gradientUnits="userSpaceOnUse">
      <stop stop-color="#F0E1CB"/>
      <stop offset="1" stop-color="#D2AF96"/>
    </linearGradient>
    <linearGradient id="d" x1="1.5" x2="1.5" y1="170" y2="213" gradientUnits="userSpaceOnUse">
      <stop stop-color="#F0E1CB"/>
      <stop offset="1" stop-color="#D2AF96"/>
    </linearGradient>
  </defs>
</svg>
